<svg xmlns="http://www.w3.org/2000/svg" id="areas" viewBox="0 0 20 20"><path d="M2.876 10.06h8.294a.51.51 0 0 0 .509-.509v-8.26h5.45v2.311h-1.575a.51.51 0 0 0-.509.509c0 .287.274.509.509.509h1.575v2.443h-1.575a.516.516 0 0 0-.509.509c0 .287.274.509.509.509h1.575v2.443h-1.575a.51.51 0 0 0-.509.501c.029.282.26.518.509.518h1.575v4.001h-3.444v-1.575a.516.516 0 0 0-.509-.509.51.51 0 0 0-.509.509v1.575h-2.586v-1.575a.516.516 0 0 0-.509-.509.51.51 0 0 0-.509.509v1.575H6.477v-1.575a.51.51 0 0 0-1.018 0v1.575H2.872l.004-.197V10.06z"/></svg>