<svg xmlns="http://www.w3.org/2000/svg" id="area" viewBox="0 0 25 25"><path stroke="null" d="M23.68 6.843a2.797 2.797 0 0 0-5.348-1.132l-2.388-.4-.234 1.38 2.4.4a2.797 2.797 0 0 0 1.725 2.339l-.68 5.136a2.791 2.791 0 0 0-2.466 2.764v.01l-8.06 2.126a2.783 2.783 0 0 0-2.069-1.398L5.132 6.64a2.804 2.804 0 0 0 1.524-1.463l2.161.36.23-1.378-2.171-.363a2.79 2.79 0 1 0-3.132 3.006l1.429 11.425a2.797 2.797 0 1 0 3.825 2.598v-.01l8.061-2.126a2.79 2.79 0 1 0 3.48-3.947l.68-5.137a2.791 2.791 0 0 0 2.462-2.763zM4.105 5.444a1.398 1.398 0 1 1 0-2.796 1.398 1.398 0 0 1 0 2.796zm2.098 16.78a1.398 1.398 0 1 1 0-2.796 1.398 1.398 0 0 1 0 2.796zm14.682-4.894a1.398 1.398 0 1 1-2.797 0 1.398 1.398 0 0 1 2.797 0zM19.486 6.843a1.398 1.398 0 1 1 2.797 0 1.398 1.398 0 0 1-2.797 0z" id="svg_4"/><path stroke="null" transform="rotate(9.472 12.481 4.757) scale(.0437)" id="svg_5" d="M301.86 108.327h32v32h-32z"/><path stroke="null" transform="matrix(.0431 .0072 -.0072 .0431 .84 -1.543)" id="svg_6" d="M238.664 97.782h32v32h-32z"/></svg>