<svg xmlns="http://www.w3.org/2000/svg" id="battery" viewBox="0 0 700 702"><path d="M369.5 293.9v353.8c0 21.9-10.4 37-31 44.2-4.9 1.7-10.4 2.5-15.7 2.5-88.8.2-177.7.2-266.5.1-26.2 0-45.9-18.8-46.5-43.9-.1-3.9 0-7.8 0-11.7 0-179.3 0-358.6-.1-537.9 0-17.8 6.8-31.7 22.8-41.2 7.3-4.3 15.4-6.1 24-6.1H105.7V27.2c0-17.3 2.1-19.3 20.3-19.3h131.6c11.7 0 15.8 3.9 15.8 15 0 9.7.1 19.4.1 29.1 0 .3.2.6.5 1.5 1.7.1 3.6.2 5.4.2h41.7c28.5.1 48.1 18.7 48.1 45.9.1 55.5.1 111-.1 166.5 0 4.4 1.1 5.9 5.9 6.7 43.9 7.6 77 44 77.7 86.7.8 46.1.3 92.3.3 138.4 0 38.1-.1 76.3 0 114.4 0 21.5 11 37 31.4 44.8 27.4 10.5 60.3-8.1 63.8-36.2.4-3.5.7-7.1.7-10.7 0-77.5 0-154.9.1-232.4 0-3.9-.9-6.2-5-8.2-12.2-6.1-18.4-16.1-19-29.3-.2-3.9 0-7.7 0-12.3-7.9 0-15.1.1-22.4 0-24.5-.4-41.9-12.8-48.1-34.6-1.3-4.5-1.6-9.4-1.6-14.1-.1-27.4-.1-54.8-.1-82.2v-6.2c-3.9 0-7.4.1-10.9 0-8.2-.2-12.9-4.5-12.9-12.5-.1-14.6-.1-29.3 0-43.9.1-7.6 4.8-12 12.7-12.2 7.5-.1 14.9 0 23 0 .1-2.3.3-4.3.3-6.2.1-25.9-.2-51.8.5-77.6.5-16.7 17.3-30.6 35.4-30.5 18.1 0 34.9 13.9 35.3 30.6.7 25.5.4 51.1.5 76.6v6.9h48.1v-6c.1-25.9-.2-51.8.5-77.6.5-16.6 17.4-30.6 35.4-30.5 18.1.1 34.8 13.9 35.3 30.6.7 25.5.4 51.1.5 76.6v7.1h21.7c9.6.1 14.2 4.4 14.3 13.3.1 14 .1 27.9 0 41.9 0 9.2-4.5 13.3-14.1 13.4h-9.8v6.3c0 27.9.1 55.8 0 83.8-.1 23.2-13.9 40.3-37.1 45.9-4.6 1.1-9.5 1.1-14.3 1.2-6.6.2-13.1 0-20.6 0 0 4.3.1 8.1 0 11.9-.4 13.4-6.8 23.5-19.1 29.8-3.8 1.9-4.9 3.8-4.9 7.7.1 77.8 0 155.6.1 233.4 0 21.4-7.3 39.6-23.9 54.2-28.5 25-73.7 23.3-100.2-3.8-13.9-14.2-19.8-31-19.8-50.3.1-82.1.1-164.1 0-246.2 0-27.1-12-48-36.4-61.8-6.3-3.5-14.3-5.7-22.9-9.1zM33.8 374.1v274.3c0 14.5 8.7 23.3 23.5 23.3 88.3.1 176.6.1 264.9-.1 3.8 0 7.9-.9 11.3-2.4 9.9-4.5 12.2-12.9 12.2-22.5-.1-124.3 0-248.5 0-372.8V101.3c0-16.4-8.6-24.4-25.7-24.4-38 .1-76 .2-114 .2-48.3 0-96.7.3-145-.4-17.5-.3-27.4 10.4-27.3 25.9.3 90.3.1 180.9.1 271.5zm443.9-182.5c-.2 1.7-.4 2.8-.4 4 0 28.4-.2 56.8 0 85.2.1 15.4 10 24.6 26.2 24.7 38.1.1 76.3 0 114.4 0 17.7 0 27.3-9.2 27.3-26.2.1-27.4 0-54.8 0-82.2 0-1.8-.2-3.6-.3-5.6-55.9.1-111.3.1-167.2.1zm191.2-45.7H453.7v22.2h215.2v-22.2zM130.1 53.4h119.1v-22H130.1v22zm383.1 68.9c0-27.2.1-53.8-.1-80.5-.1-6.8-5.8-11.1-12.9-10.5-6.9.5-10.8 5-10.8 12.7v74.4c0 1.3.3 2.6.4 3.9h23.4zm119.8 0c0-27.4.1-54.4-.1-81.3-.1-5.7-5.1-9.5-11.1-9.7-7.7-.3-12.5 4.4-12.5 12.6-.1 25 0 49.9 0 74.9 0 1.1.2 2.2.4 3.5H633zm-60 206.8h-23.5c0 4.4-.3 8.4.1 12.4.6 5.6 5.8 9.8 11.7 9.8 5.9 0 11.1-4.2 11.7-9.8.3-4 0-8 0-12.4z"/><path d="M229.3 340H284.4c5.5 0 9.8 1.9 12 6.9 2.1 4.7.9 8.8-2.5 12.7-41.7 48.3-83.4 96.7-125.1 145.1-13.7 15.9-27.4 31.8-41.2 47.6-5.7 6.5-14 6.6-19.3.5-3.4-3.9-2.6-8.3-1.4-12.6 6.4-23.2 12.9-46.3 19.3-69.5 7.3-26.3 14.7-52.6 22-78.9.5-1.8.9-3.6 1.5-6.1h-6.4c-15.5 0-31-.1-46.5.1-5.7.1-10.8-1-13.6-6.2-3.1-5.6-.7-10.4 3.2-14.9 46.6-53.9 93.2-107.9 139.8-161.9 8.2-9.5 16.3-18.9 24.5-28.4 2.9-3.4 6.3-6 11.3-5.8 8.4.4 13 7.1 10.7 15.7-5.2 18.9-10.5 37.8-15.8 56.7-8.7 31.2-17.4 62.5-26.2 93.7-.5 1.5-.8 3.1-1.4 5.3zm-84.8 154.9c.4.2.9.4 1.3.5 37.9-43.9 75.8-87.8 114.5-132.6H254c-13.4 0-26.8.1-40.1-.1-8.7-.1-13.5-6.5-11.6-14.6.2-.8.4-1.7.6-2.5 10.1-36.3 20.3-72.5 30.4-108.8.6-2.2 1.1-4.4 1.7-6.6-.3-.1-.7-.3-1-.4-37.9 44-75.9 88-114.6 133h43.1c12.4 0 17.2 6 14 17.4-7.6 27.1-15.2 54.2-22.7 81.3-3.2 11.1-6.2 22.2-9.3 33.4z"/></svg>