<svg xmlns="http://www.w3.org/2000/svg" id="builder" viewBox="0 0 25 25">
    <path d="M12.7,19.8v-1.6l-1.6,1.6H12.7L12.7,19.8z M21.6,17.3C21.6,17.3,21.6,17.3,21.6,17.3c0,0.1,0.1,0.2,0.1,0.2 c0.1,0.2,0.2,0.3,0.2,0.5c0.2,0.5,0.1,0.9-0.2,1.1c-0.2,0.1-0.2,0.2-0.4,0.2c-0.2,0-0.3,0-0.5,0c-0.4-0.1-0.7-0.4-0.8-0.9l0.7-0.2c0,0.2,0.2,0.3,0.2,0.3s0.1,0,0.2,0c0,0,0.1,0,0.1-0.1c0.1-0.1,0.1-0.2,0-0.3c-0.1-0.2-0.2-0.3-0.2-0.4c-0.1-0.1-0.1-0.2-0.2-0.2c0-0.1-0.1-0.2-0.1-0.2l-0.4-1h-0.9v-4h0.5V7.6h-6.5v0.2v12.5c0.5,0.2,0.9,0.7,0.9,1.3v1.1c0,0.1,0,0.1,0,0.2h1.3V25H7.1v-2.2h1.1c0-0.1,0-0.1,0-0.2v-1.1c0-0.6,0.4-1.2,1-1.3V7.7V7.6h-7v-2L10.5,0h0.1h0.1h1.6h0.1h0.1l9.9,5.5v0.2v6.4h0.5v4H22L21.6,17.3 L21.6,17.3z M20.6,12.3h1.2V7.6h-1.2V12.3L20.6,12.3z M21.3,5.7l-9-5.2v0.1l1,5C16.1,5.6,18.7,5.7,21.3,5.7L21.3,5.7z M10.4,0.7L3,5.6h6.3L10.4,0.7L10.4,0.7z M12.4,5.6l-0.9-4.5h-0.2l-0.9,4.5H12.4L12.4,5.6z M12,17.7l-1.8,1.7v-1.7L12,17.7L12,17.7zM12.7,16.6v-1.6l-1.6,1.6H12.7L12.7,16.6z M12.1,14.4h-2v1.9L12.1,14.4L12.1,14.4z M12.7,13.4v-1.6l-1.6,1.6H12.7L12.7,13.4zM12,11.2h-1.9V13L12,11.2L12,11.2z M12.7,10.2V8.6l-1.6,1.6H12.7L12.7,10.2z M11.7,8.3h-1.6v1.5L11.7,8.3z"/></svg>