<svg xmlns="http://www.w3.org/2000/svg" id="call" viewBox="313.8 113.8 573.1 571.5"><path d="M876.1 559.7c1.3 8.7-1.8 17.4-8.2 23.4l-77.8 77.2c-3.9 4.2-8.6 7.6-13.7 9.9-5.3 2.6-10.9 4.4-16.7 5.3-1.2.1-2.4.2-3.5.3-2.5.2-5.1.3-7.6.3-7.4 0-19.4-1.3-36-3.8s-36.9-8.8-60.8-18.7c-24-9.9-51.2-24.9-81.6-44.8-30.5-19.8-62.9-47.1-97.2-81.8-27.3-26.9-49.9-52.7-67.9-77.2-17.9-24.6-32.4-47.3-43.3-68.2-10.9-20.9-19.1-39.8-24.6-56.8s-9.2-31.6-11.1-43.9c-1.9-12.3-2.7-21.9-2.3-29 .4-7 .6-10.9.6-11.7.8-5.5 2.5-11 5.3-16.7s6-10.2 9.9-13.7l77.8-77.8c5.5-5.5 11.7-8.2 18.7-8.2 5.1 0 9.6 1.5 13.5 4.4 3.9 2.9 7.2 6.5 9.9 10.8l62.6 118.8c3.5 6.2 4.5 13.1 2.9 20.5-1.4 7.1-4.8 13.6-9.9 18.7l-28.7 28.7a9.5 9.5 0 0 0-2.1 3.8c-.5 1.4-.8 2.9-.9 4.4 1.6 8.2 5.1 17.6 10.5 28.1 4.7 9.4 11.9 20.8 21.6 34.2 9.8 13.5 23.6 29 41.5 46.5 17.6 17.9 33.1 31.9 46.8 41.8 13.6 9.9 25.1 17.3 34.2 21.9 9.2 4.7 16.2 7.5 21.1 8.5l7.3 1.5c1.3-.1 2.6-.4 3.8-.9a9.5 9.5 0 0 0 3.8-2.1l33.3-33.9c7-6.2 15.2-9.4 24.6-9.4 6.6 0 11.9 1.2 15.8 3.5h.6l112.9 66.7c8.4 5.2 13.3 11.6 14.9 19.4z"/></svg>