<svg xmlns="http://www.w3.org/2000/svg" id="floor" viewBox="0 0 25 25"><path id="svg_1" d="M22.945 5.236H18.71c-.65 0-1.177.527-1.177 1.178V9.47h-3.056c-.65 0-1.178.526-1.178 1.177v3.056h-3.056c-.65 0-1.178.528-1.178 1.178v3.203H5.863a1.178 1.178 0 0 0-1.177 1.178v2.463c0 .65.528 1.178 1.178 1.178h17.08c.651 0 1.178-.527 1.178-1.178V6.414c0-.65-.527-1.178-1.177-1.178z"/><path stroke="null" id="svg_2" d="M16.748 1.843a.785.785 0 0 0-1.11-.014c-5.036 4.905-9.826 9.696-14.459 14.328a.786.786 0 0 0-.23.556v5.372a.785.785 0 0 0 1.57 0v-5.047C7.077 12.48 11.79 7.77 16.733 2.953c.31-.302.317-.8.015-1.11z"/></svg>