<svg xmlns="http://www.w3.org/2000/svg" id="logo" viewBox="0 0 222 218.3"><path fill="#FFF" d="M156.7 71.3c2.2.2 5.4.5 7.2.5 3.6.1 7.9 0 7.9 0l4.3-.1.6-4.3c.1-.4.5-4.5-.6-10.6-.7-3.9-2.6-7.2-5.5-10.1-3.2-3.1-7.6-5.1-14.3-6.7-6.5-1.5-11.5-1.6-16.3-3.4-9.5-3.5-18-11.8-18-11.8v29.7s1.2 4.2 5 7.4c2.4 1.9 5.4 3.6 8.9 4.8 1.9.7 3.9 1.3 5.6 1.9s-4.6 12.2-5.9 15.9c-1.6 4.9-2.7 10.8-3.4 15.8l-43.1-47c-.9-1.1-7.6-9.7-10.8-14.1C73.8 33.1 67.7 20 67.7 20s-8.9 18.8-10.8 26.5c-.7 2.6-1.5 7.8-.2 13.7 1.4 5.9 4 11.4 8.4 17l14.8 18.1c-7.7 4.7-21.1 14.5-24.3 28.3-3.1 13.1 1.4 22.7 5 30.3 1.9 4.1 3.9 8.7 3.4 13.1-.9 8.7-16.2 21.9-16.2 21.9h49.4s9.1-15.4 1.3-35c-2.5-6.3-6.8-11.8-10.8-17.3-5.6-7.7-10.8-15-9.1-19.9.8-2.3 2.8-4.9 4.9-6.4 1.1-.8 3.6-2.3 6-3.6 18.5 20.6 58.9 65.5 60.4 67.5 6.1 8 10 19.5 10 19.5s15.2-10.6 16.7-29c1.2-15.7-8.9-24.7-13.9-30.3-3-3.3-14.9-16.8-14.9-16.8s-2.7-15.3.6-28.4c2.5-10.4 5.7-15.2 8.3-17.9z"/><path d="M156.6 135.3c-1.3-1.5-13.6-15.4-13.6-15.4s-3.9-14.9.3-31.9c3.1-12.3 7.2-18.3 11.5-21.8 0 0 6.3.7 9 .7 3.5.1 7.8 0 7.8 0s.5-3.5-.6-9c-.5-2.6-1.7-5.1-4.1-7.5-2.2-2.2-5.7-4-11.9-5.4-6.4-1.4-11.8-1.5-17.1-3.6-7.7-3.1-11.1-7-11.1-7v19.2s.6 2.4 3.2 4.6c1.6 1.3 4 2.7 7.4 4 4.1 1.4 8.9 2.9 8.9 2.9s1.2 1.2-.2 5.3c-1.8 5.3-3.6 9.2-5.9 15.9-3.5 10.3-4.3 25.8-4.3 25.8L85.3 56.8s-7.7-9.6-11.1-14.5c-3.4-5-6.4-11.3-6.4-11.3s-4.2 9.4-6.1 16.7c-.8 3.1-1.1 7.2-.2 11.4 1.2 5.3 3.6 10 7.5 15.1l18.5 22.7s-23.1 10.7-27.1 27.9c-4.3 18.2 8 28.3 8.9 39.7.7 9.1-8.7 19.5-8.7 19.5H93s7.5-12.7.8-28-24.2-29.1-19.9-40.9c1.1-3.2 3.6-6.6 6.6-8.8 2.6-1.9 10-5.9 10-5.9s61 68 63.2 70.6c6.7 8 8.3 14.2 8.3 14.2s9.4-7.8 9.5-20.5c0-16.1-10.2-24.1-14.9-29.4z"/><path d="M220.6 217.2H2V2h218.7v215.2zM6 213.2h210.7V6H6v207.2z"/></svg>