<svg xmlns="http://www.w3.org/2000/svg" id="money" viewBox="0 0 25 25"><path stroke="null" id="svg_1" d="M7.466 4.318l.593.259c-.411.252-.597.498-.55.732.048.242.27.45.658.62.359.157.78.242 1.29.26.504.017 1.28-.125 2.308-.421.255-.074.456-.117.595-.128a.698.698 0 0 1 .345.048c.069.03.278.121-.248.35-.341.15-.695.211-1.05.183-.282-.022-.567.03-.729.133l-.316.201c-.138.088-.166.2-.075.299.091.098.29.17.528.192.78.07 1.55-.02 2.29-.266l.8.35a1.47 1.47 0 0 0 1.03 0c.283-.124.283-.326 0-.45l-.828-.36c.363-.232.554-.465.568-.696.016-.27-.203-.506-.649-.7a3.332 3.332 0 0 0-1.079-.257 4.289 4.289 0 0 0-1.119.051c-.34.064-.858.193-1.535.383-.295.082-.495.123-.596.124a.62.62 0 0 1-.248-.044c-.236-.103-.037-.233.17-.323.259-.113.534-.166.82-.159.285.008.555-.06.687-.17l.184-.153c.115-.096.11-.212-.017-.307-.125-.094-.354-.153-.603-.157a5.269 5.269 0 0 0-1.592.22l-.603-.263a1.469 1.469 0 0 0-1.03 0c-.283.124-.283.325.001.45z"/><path id="svg_2" d="M19.98 7.526c.048-.2.073-.404.073-.61v-.654c0-1.306-.975-2.5-2.745-3.362-1.64-.799-3.81-1.239-6.108-1.239-2.298 0-4.467.44-6.108 1.24-1.77.861-2.745 2.055-2.745 3.36v.654c0 1.288.949 2.466 2.672 3.325-.047.2-.078.448-.078.608v.12c-1.674.855-2.594 2.017-2.594 3.285v.653c0 .88.444 1.71 1.276 2.421-.113.301-.172.611-.172.928v.654c0 1.305.975 2.499 2.745 3.361 1.641.8 3.81 1.24 6.108 1.24 2.298 0 4.467-.44 6.108-1.24 1.77-.862 2.745-2.056 2.745-3.361v-.654c0-.88-.444-1.71-1.275-2.42.113-.301.17-.612.17-.929v-.119c1.675-.855 2.594-2.018 2.594-3.286v-.653c0-1.286-.946-2.463-2.666-3.322zM3.585 5.709c.256-.652.954-1.285 2-1.795C7.077 3.19 9.07 2.79 11.2 2.79c2.13 0 4.124.4 5.614 1.125 1.047.51 1.745 1.143 2.002 1.795-.906 1.575-4.053 2.724-7.616 2.724S4.49 7.284 3.585 5.71zm0 7.991c.208-.53.71-1.047 1.453-1.496.286 1.028 1.2 1.954 2.648 2.659 1.64.799 3.81 1.24 6.107 1.24.225 0 .448-.006.67-.015a15.634 15.634 0 0 1-3.263.337c-3.563 0-6.71-1.15-7.615-2.725zm16.335 4.002c-.906 1.576-4.053 2.725-7.616 2.725-3.095 0-5.874-.868-7.145-2.128 1.633.779 3.774 1.208 6.041 1.208 2.298 0 4.467-.44 6.108-1.24.85-.413 1.516-.904 1.98-1.447.299.283.513.58.632.882zm-6.127-4.682c-3.11 0-5.904-.876-7.166-2.147 1.363.418 2.935.643 4.573.643 2.298 0 4.467-.44 6.108-1.24.994-.483 1.737-1.072 2.197-1.726.992.501 1.656 1.114 1.904 1.745-.906 1.576-4.053 2.725-7.616 2.725z"/></svg>