<svg xmlns="http://www.w3.org/2000/svg" id="parking" viewBox="0 0 25 25"><path stroke="null" id="svg_1" d="M4.286 7.072c.115.016.263.024.428.024.74 0 1.374-.18 1.8-.584.329-.313.51-.774.51-1.316 0-.544-.238-1.004-.593-1.283-.37-.297-.92-.444-1.693-.444-.765 0-1.308.049-1.693.115v5.47h1.241V7.071zm0-2.608c.09-.025.262-.05.518-.05.624 0 .978.305.978.815 0 .567-.411.905-1.077.905-.18 0-.312-.009-.42-.034l.001-1.636z"/><path stroke="null" id="svg_2" d="M1.944 10.768h6.181c.782 0 1.416-.633 1.416-1.415V3.17c0-.782-.634-1.415-1.416-1.415H1.944c-.782 0-1.416.633-1.416 1.415v6.183c0 .782.634 1.415 1.416 1.415zm-.298-7.514c0-.21.172-.382.382-.382h6.013c.21 0 .382.172.382.382v6.014c0 .21-.171.382-.382.382H2.028a.382.382 0 0 1-.382-.382V3.254z"/><path stroke="null" id="svg_3" d="M6.26 18.168a2.472 2.472 0 1 0 0 4.944 2.472 2.472 0 0 0 0-4.944zm0 3.219c-.41 0-.746-.335-.746-.747s.336-.746.747-.746c.41 0 .746.335.746.746s-.336.747-.746.747z"/><path stroke="null" id="svg_4" d="M24.264 18.614l-.406-3.29a1.21 1.21 0 0 0-1.267-1.06l-.885.049-2.752-2.479a1.438 1.438 0 0 0-.964-.37H12.4c-1.254 0-2.47.428-3.449 1.214l-3.118 2.506-4.194 1.047c-.538.135-.917.62-.917 1.174v1.208a.323.323 0 0 0-.322.323v1.599c0 .227.185.412.413.412H3.18c-.01-.103-.03-.2-.03-.306a3.11 3.11 0 1 1 6.22 0c0 .106-.021.204-.031.306h6.556c-.01-.103-.03-.2-.03-.306a3.11 3.11 0 1 1 6.22 0c0 .106-.021.204-.032.306h2.208a.412.412 0 0 0 .413-.412v-1.508a.409.409 0 0 0-.41-.413zm-8.296-4.043l-7.798.395 1.493-1.2a4.56 4.56 0 0 1 2.86-1.008h3.445v1.813zm1.296-.067v-1.746h.507c.176 0 .345.065.476.183l1.591 1.433-2.574.13z"/><path stroke="null" id="svg_5" d="M18.976 18.168a2.472 2.472 0 1 0-.001 4.944 2.472 2.472 0 0 0 .001-4.944zm0 3.219a.748.748 0 1 1 .746-.746.748.748 0 0 1-.746.746z"/></svg>