<svg xmlns="http://www.w3.org/2000/svg" id="plan" viewBox="0 0 75 75"><path fill="#00000" d="M24.239 52.318h44.204c.452 0 .82-.368.82-.82V5.82a.821.821 0 0 0-.82-.82H24.239a.821.821 0 0 0-.82.82v45.678c0 .452.367.82.82.82zm.82-45.678h10.147v25.702a.821.821 0 0 0 1.64 0v-8.021h12.441a.821.821 0 0 0 0-1.64h-12.44V6.64h30.776v16.041h-8.021a.821.821 0 0 0 0 1.64h8.021v26.356H36.847v-8.021a.821.821 0 0 0-1.64 0v8.021H25.059V6.64zM69.261 64.759a.814.814 0 0 0-.238-.579l-4.42-4.421a.815.815 0 0 0-.58-.24.815.815 0 0 0-.58.24.815.815 0 0 0-.24.58c0 .219.085.425.24.58l3.02 3.02H17.379l3.02-3.02a.82.82 0 0 0-1.16-1.16l-4.42 4.42a.8.8 0 0 0-.239.581c.001.22.085.426.239.579l4.42 4.421c.155.155.361.24.58.24a.82.82 0 0 0 .58-1.4l-3.02-3.02h49.084l-3.02 3.02a.815.815 0 0 0-.24.58c0 .22.085.426.24.58.155.155.361.24.58.24a.815.815 0 0 0 .58-.24l4.42-4.42a.818.818 0 0 0 .238-.581zM16.218 51.498a.815.815 0 0 0-.24-.58.815.815 0 0 0-.58-.24.815.815 0 0 0-.58.24l-3.021 3.019V7.801l3.02 3.019c.155.155.361.24.58.24a.815.815 0 0 0 .58-.24.815.815 0 0 0 .24-.58.815.815 0 0 0-.24-.58l-4.419-4.42a.815.815 0 0 0-.58-.24.815.815 0 0 0-.58.24l-4.42 4.42a.815.815 0 0 0-.24.58c0 .219.085.425.24.58.155.155.361.24.58.24a.815.815 0 0 0 .58-.24l3.02-3.02v46.138l-3.02-3.02c-.155-.155-.361-.24-.58-.24s-.425.085-.58.24a.815.815 0 0 0-.24.58c0 .219.085.425.24.58l4.42 4.42c.155.155.361.24.58.24s.425-.085.58-.24l4.421-4.42a.818.818 0 0 0 .239-.58z"/></svg>