<svg xmlns="http://www.w3.org/2000/svg" id="roller" viewBox="0 0 25 25"><path stroke="null" id="svg_1" d="M6.24 18.196L18.062 6.373a1.219 1.219 0 0 0 0-1.723l-1.068-1.068-.689-.689-1.068-1.068a1.219 1.219 0 0 0-1.723 0L1.692 13.647a1.219 1.219 0 0 0 0 1.723l2.825 2.826a1.219 1.219 0 0 0 1.723 0z"/><path stroke="null" id="svg_2" transform="rotate(45 15.903 1.181) scale(.06251)" d="M278.317 15.448h15.589v9.92h-15.589z"/><path id="svg_3" d="M22.977 20.75l-5.664-5.665-2.361 2.361 5.664 5.665a1.67 1.67 0 0 0 2.361-2.361z"/><path stroke="null" id="svg_4" d="M15.773 15.217l-.979-.978c-.729-.73-2.095-.55-3.045.4L6.21 20.176c-.57.57-1.497.57-2.067 0l-.838-.838a1.462 1.462 0 0 1-.2-1.815l-.698-.699a2.439 2.439 0 0 0 .209 3.204l.838.838c.95.95 2.495.95 3.445 0l5.538-5.538c.609-.609 1.367-.7 1.667-.4l.978.979.69-.69z"/></svg>