<svg xmlns="http://www.w3.org/2000/svg" id="tele" viewBox="-463.3 -204.2 993.1 993.1"><path d="M253.2 412.2c-26.1-25.8-58.8-25.8-84.7 0-19.8 19.6-39.6 39.3-59.1 59.3-5.3 5.5-9.8 6.7-16.3 3-12.8-7-26.5-12.7-38.8-20.3C-3.2 418-51.3 371.6-93.9 319.3c-21.1-26-40-53.8-53.1-85.1-2.7-6.3-2.2-10.5 3-15.6 19.8-19.1 39.1-38.8 58.6-58.4 27.1-27.3 27.1-59.3-.2-86.7-15.5-15.6-31-31-46.4-46.6-16-16-31.8-32.1-47.9-47.9-26.1-25.5-58.8-25.5-84.7.2-20 19.6-39.1 39.8-59.4 59.1-18.8 17.8-28.3 39.6-30.3 65.1-3.2 41.5 7 80.6 21.3 118.7 29.3 78.9 73.9 149 128 213.3 73.1 86.9 160.3 155.7 262.4 205.3C103.3 663 151 680.2 202.7 683c35.6 2 66.6-7 91.4-34.8 17-19 36.1-36.3 54.1-54.4 26.6-27 26.8-59.6.3-86.2-31.7-32.1-63.5-63.8-95.3-95.4zM218.4 285.5l61.4-10.5c-9.7-56.4-36.3-107.5-76.7-148.2C160.3 84 106.2 57 46.6 48.7l-8.7 61.8C84 117.1 126 137.9 159.1 171c31.3 31.3 51.8 70.9 59.3 114.5z"/><path d="M290.4 30.5C219.5-40.4 129.8-85.2 30.7-99L22-37.2c85.6 12 163.1 50.8 224.4 111.9 58.1 58.1 96.2 131.5 110 212.3l61.4-10.5c-16-93.7-60.1-178.6-127.4-246z"/></svg>